<?xml version="1.0" encoding="utf-8"?><svg xmlns="http://www.w3.org/2000/svg" xmlns:xlink="http://www.w3.org/1999/xlink">

<symbol viewBox="0 0 200 84" id="companies-1" xmlns="http://www.w3.org/2000/svg"><g clip-path="url(#a)"><path d="M179.3 56.5c-.9.7-1.8 1.59-2.8 2-2.9 1.3-5.8 2.59-8.8 3.59-3.7 1.3-6.6-.29-8.81-3.29-.09-.21-.29-.41-.29-.3-3.3 1.2-6.4 2.39-9.5 3.3-2.9.79-5.8.5-8.6-.6-.8-.31-1.8-.2-2.7-.2-.5 0-3.7 1-9.5-.3-1.9-.2-3.1-1.9-3.9-3.7-.3-.7-.6-1.3-1-2.2-.9 1.09-1.5 2.09-2.3 2.9-1 1.1-2.2 2.19-3.4 3-.9.6-1.9.5-2.4-.61-.4-1-1.1-.79-1.9-.5-2 .8-3.9 1.71-6 2.3-2.7.91-5.4.61-7.8-.89-.8-.5-1.3-1.2-2-1.7-1.7.59-3.5 1.09-5.2 1.79-2.2.91-4.5.91-6.7.21-2.6-.8-5.1-.1-7.6 0-2.8 0-5.5-.41-8.3-.41-1.2 0-2.5.31-3.61.91-2 1-3.79.79-5.69-.1-1.9-.9-3.3-2.4-3.8-4.4-.4-1.8-.4-3.71-.4-5.5-.1-1.3.6-2.1 1.9-2.3.6-.11 1.2-.41 2.1-.7-.1 1-.1 1.79-.2 2.59-.5 2.5-.2 4.91 1.1 7.11 1.3 2.3 4.4 2.89 6.7 1.39.7-.39 1.4-.8 2.1-1.09 1.5-.6 3.6-4 3.4-5.6-.1-1.4-1.5-2.11-3.4-1.61-.6.11-1.2.21-2.1.41.29-.5.29-.8.5-1 1.5-1.41 4.7-1.8 6.5-1 1.4.7 1.79 1.8 1.1 3.09-.81 1.5-1.7 3-2.7 4.3-.9 1.2-.5 1.81.7 2.11 3.5.8 7.1 1.3 10.4-.8 1.9-1.11 2.7-3 3.1-5 .2-.81-.2-1.81-1.5-1.81h-3.8c.8-1.69 3.5-2.59 5.6-2.19 2.7.6 3.2 1.69 1.9 4.1-.7 1.4-1.6 2.7-2.5 3.9-.6.89-.6 1.5.4 1.8.9.3 2 .59 2.9.39 2.1-.39 4.1-1.09 6.1-1.69.4-.11.8-.5 1-.9.4-.91.8-1.8 1.1-2.8.7-2.7 2.6-4.11 5.1-4.7.9-.21 2.2-.1 2.7.4.8.8.6 2.19-.4 3-1.1 1-2.3 1.89-3.6 2.6-1.8 1-1.9 1.7-.4 3.09 2 1.91 5.7 2.31 8.6.81.3-.11.5-.31.8-.5 2.5-1.11 2.5-1.11 2-3.81-.2-1.09-.3-2.19-.5-3.3-.2-1.39 1.6-3.2 2.9-2.7.3.11.6.81.6 1.2.2 1.61.2 3.21.4 4.71.1.59.6 1.2.9 1.7.4-.3 1-.61 1.3-1.11.9-1.3 1.7-2.69 2.5-4.09.8-1.3 2.2-1.8 3.8-2.3.1 3.3.6 6.3 3.2 7.89 2.6 1.7 5.6 2.81 8.7 2.5-.6-2.89-1.2-5.59-1.8-8.39 0-.11-.2-.41-.11-.41 1.61-1.39.91-3.39 1.5-5.09.11-.2.21-.61.41-.7.59-.41 1.3-1.1 1.7-1 .89.2.89 1.09.6 2-.1.2-.1.5-.1.79-.11 2.21.1 2.41 2.3 2.11 4.4-.61 8.7-1.7 12.8-3.31.6-.19 1.2-.3 1.79-.5.11.2.11.31.21.5-1.8.7-3.6 1.5-5.4 2.11-3.6 1.09-7.2 2-10.81 2.89-1 .2-1.5.61-1.29 1.61.29 1.59.29 3.3 1 4.8.5 1 1.6 2.09 2.7 2.5 3.5 1.29 7.09 1.4 10.7-.3 2.8-1.3 5.3-2.5 4.2-6.41-.81-3 1.3-3.89 4-4.5-.1.91-.1 1.71-.31 2.5-.89 4 .41 7.5 3.81 8.61 1.9.6 4.2.3 6.2-.2 1.8-.41 3.4-1.7 5.1-2.61.7-.39 1.5-.8 2.2-1.19.5.5.5.6.6.8m-77.7-2.11c.2.11.4.2.5.31.7-.61 1.4-1.11 2-1.81.2-.19-.1-.8-.1-1.3-.4.11-1 0-1.1.3-.6.91-.9 1.7-1.3 2.5M46.9 30c.1-.5 0-1 .2-1.4 2.7-4.9 3.1-10.2 2.6-15.5-.2-1.8-1.2-3.6-2.1-5.2-.6-1.2-2-1.4-3.1-.7-1.4.9-2.8 2-3.7 3.3-3.71 5.2-6.21 10.9-8 17l-3.6 12.6c-.3 1.2-.4 2.5-.6 3.8-.1 1 .3 1.4 1.3 1.3 2.1-.2 4.3-.3 6.4-.4 3.9-.3 7.9-.5 11.8-.8.7 0 1.4-.3 2.1-.3s1.5.1 2.2.1c0 .2 0 .5.1.7-.6.1-1.3.4-1.9.4-6.9.7-13.8 1.3-20.7 2-1.2.1-1.8.7-1.6 2 .9 7.3.8 14.7.5 22 0 1-.1 2.4-1.3 2.3-.7 0-1.9-1.2-2-1.9-.4-3-.8-6.1-.6-9.2.2-4.2.9-8.5 1.3-12.7.1-1.2-.2-1.9-1.5-1.7-.4.1-.8.1-1.1-.1-.4-.2-.7-.7-1.1-1 .4-.3.7-.9 1.1-1 2.6-.9 2.7-.8 2.1-3.6-.4-2.1-1-4.1-1.6-6.5-.5 1.3-.8 2.1-1.2 3-1.5-1.5-2-5.7-1-7.1s2.4-1.5 3.1.2c.9 2 1.5 4.2 2.1 6.3.2.6.3 1.2.7 1.8.4-1.7.8-3.4 1.3-5 1.7-5.2 3.3-10.5 5.2-15.6 1.6-4.2 3.6-8.3 6.8-11.6 1-1 2.2-1.9 3.6-2.3 1.8-.6 3.5.2 4.7 1.6 2.2 2.6 2.7 5.6 2.6 8.9-.1 4.5-.9 8.8-2.8 12.9-.3.7-1 1.2-1.6 1.9-.3-.2-.5-.4-.7-.5"/><path d="M54.8 51.2c-4 1.39-7.8 2.5-11.8 2.69-2.3.11-2.41.31-2.41 2.5 0 1.7.11 3.5-1.29 4.81-.6.5-1.4.8-2.21 1.09-.29-.59-.59-1.29-.69-1.9-.4-2.59-.81-5.19-1.1-7.89 0-.41.1-1 .29-1.2.5-.3 1.41-.71 1.71-.5.79.59 1.7.4 2.5.7 4.7 1.5 9.3.3 13.9-.5h.5c.1 0 .2 0 .6.2m107.7-9.4c.1 1.5-.61 2.09-1.9 2.09-1.21 0-2.1-.59-2.21-1.8-.19-1 1.11-1.89 2.61-1.89 1.1 0 1.5.39 1.5 1.6M59.49 40.09c1.41-.2 1.71.61 1.71 1.61.1 1.1-.8 2.1-1.9 2.1-1.2-.1-2.1-.6-2.31-1.8-.09-1.11 1-1.8 2.5-1.91"/></g>
</symbol>

<symbol viewBox="0 0 200 84" id="companies-2" xmlns="http://www.w3.org/2000/svg"><g clip-path="url(#a)"><path d="M48 17.5c.8.2 1.6.5 2.3.7 2.8.9 3.9 3.9 2.4 6.5-1.1 1.9-2.8 3.4-4.3 5-1.3 1.3-2.9 2.5-3.5 4.3-.6 1.7-1.2 3.5-1.4 5.3-.3 2.3-.1 4.59-.3 6.9-.1 2.5-.7 4.9-2.8 6.5q-1.5 1.2-3.6 1.5c-3.8.5-6.2-1.7-8.3-4.31-4-5-6.1-10.89-7.8-17-.3-1.09-.41-2.29-.6-3.5 0-.09-.1-.19-.2-.29v-4.5c.1-.3.3-.6.39-.8.61-2 2.31-3.1 4.31-3.1 1.5 0 2.7.6 4 1.19 1.6.81 3.1.81 4.7 0 2.2-1.09 4.4-2.19 6.7-3.1 1.1-.5 2.4-.79 3.6-1.09 1.5-.2 2.9-.2 4.4-.2m91.2 18.3c-.1 4-.7 7.79-2.4 11.29-.6 1.3-1.41 2.5-2.6 3.3-2.1 1.41-4.9.91-6-1.59-.7-1.41-1.2-2.8-1.9-4.21-.7-1.29-1.7-2.5-3.4-2.09-.9.2-1.8.8-2.6 1.3-.8.59-1.4 1.4-2.2 2-1.8 1.4-3.3 1.4-5.5 0-.8-.5-1.7-1-2.6-1.41-1-.5-2-.19-2.7.7-1.1 1.3-2 2.71-3 4-1.1 1.3-2.4 2.11-4.1 2.21-4.3.4-6.4-2.41-7.3-5.71-.7-2.59-.7-5.2-.4-7.79.3-3.3.6-6.6 1.8-9.71 1.1-2.79 2.4-5.29 5.2-6.79 3.3-1.8 7.3-1.51 10.4 1.2 1.7 1.5 3.6 2.7 5.9 2.59 1.9-.09 3.4-1 5-2 1.5-.89 2.9-1.89 4.5-2.5 2.9-1.09 5.8-.8 8.4 1.11 2.8 2.1 4.1 5.1 4.8 8.3.39 1.7.5 3.8.7 5.8m40.8-2.2c.1 4.9-1.2 9.4-3.1 13.8-1.1 2.8-2.6 5.3-4.4 7.7-2.4 3.2-5.3 5.9-8.8 8-2.4 1.5-5 2.6-7.81 2.9-3 .4-6 .6-9-.4-3.59-1.2-4.19-5.7-1.79-8.3 1.5-1.6 3.5-2.5 5.29-3.7 1.71-1.1 3.21-2.4 3.5-4.5.21-1.1 0-2.2-.19-3.2-.7-2.9-2.4-5.4-3.81-8.1-1.19-2.3-2.19-4.7-2.59-7.2-.41-2.2-.2-4.2 1.3-6 2.2-2.6 5.1-3.2 7.79-1.3 1.41 1 2.61 2.2 3.91 3.3 2.2 2.1 4.7 2.5 7.5 1.1 1.7-.8 3.3-1.7 5.1-2 1.9-.3 3.8-.3 5.3 1.1 1.3 1.2 1.7 2.8 1.8 4.4.1.9 0 1.7 0 2.4M71.6 57.9c-4.41 0-8.3-1.3-11.6-4.1-3.1-2.6-5-6-5.6-10-.5-3.5-.2-6.9 1.4-10.1 1.6-3.3 4-6 7.1-7.9 2.4-1.4 4.9-2.3 7.7-2.5 4.2-.4 8 .5 11.09 3.4 2.71 2.5 3.81 6.6 1.21 10.4-.8 1.2-1.8 2.4-2.5 3.7-.8 1.2-1.4 2.5-1.1 4 .2.8.7 1.5 1.2 2.1.69.9 1.8 1.6 2.4 2.5 1.5 2.3 1 4.3-1.3 5.9-2.1 1.4-4.5 2.1-7 2.4-1 .1-2 .1-3 .2"/></g>
</symbol>

<symbol viewBox="0 0 200 84" id="companies-3" xmlns="http://www.w3.org/2000/svg"><g clip-path="url(#a)"><path d="M68.3 58.29v-32.9h20.3V31H74.1v8.09h7.4v5.61h-7.4v13.5h-5.8z"/><path fill-rule="evenodd" d="M80.4 43.1c-.5 1.4-.8 2.8-.8 4.3 0 2 .5 3.9 1.5 5.6s2.3 3 4 3.9c1.69 1 3.6 1.4 5.69 1.4 1.81 0 3.5-.4 5.11-1.2 1.6-.8 2.8-1.8 3.8-3.2L96 51c-.6.8-1.3 1.4-2.3 1.8-.91.4-1.91.6-2.91.6-1.5 0-2.79-.4-3.79-1.2s-1.71-1.9-2-3.2h16c.1-.5.1-1.1.1-1.7 0-2-.4-3.8-1.31-5.5-.89-1.7-2.19-3-3.79-4s-3.5-1.5-5.5-1.5q-2.4 0-4.5.9c-1.4.6-2.5 1.4-3.4 2.4-1 .9-1.7 2.1-2.2 3.5m15.2 1.8H85.1c.4-1.1 1.1-2.1 2-2.7 1-.7 2.1-1 3.3-1 1.3 0 2.5.4 3.39 1.1 1.11.7 1.61 1.6 1.81 2.6"/><path fill-rule="evenodd" d="M98.3 43.09c-.5 1.41-.8 2.8-.8 4.3 0 2 .5 3.91 1.5 5.61s2.3 3 4 3.89c1.7 1 3.6 1.41 5.7 1.41 1.8 0 3.5-.41 5.1-1.21 1.6-.79 2.8-1.79 3.8-3.2l-3.7-3c-.6.81-1.3 1.41-2.3 1.81-.9.39-1.9.6-2.9.6-1.5 0-2.8-.41-3.8-1.21-1-.79-1.7-1.89-2-3.2h16c.1-.5.1-1.09.1-1.69 0-2-.4-3.81-1.3-5.5-.9-1.7-2.2-3-3.8-4s-3.5-1.5-5.5-1.5c-1.6 0-3.1.3-4.5.89-1.4.61-2.5 1.41-3.4 2.41-1 1-1.7 2.2-2.2 3.59m15.2 1.8H103c.4-1.09 1.1-2.09 2-2.69 1-.7 2.1-1 3.3-1 1.3 0 2.5.39 3.4 1.1 1.1.7 1.6 1.59 1.8 2.59"/><path d="M117.2 50.3c0 2.6.6 4.5 2 5.9 1.3 1.4 3.2 2.1 5.6 2.1.9 0 1.9-.1 3.2-.4v-5c-.4.1-.9.1-1.4.1-1.4 0-2.3-.3-2.8-1s-.7-1.8-.7-3.4v-23h-5.7v24.7z"/></g>
</symbol>

<symbol viewBox="0 0 200 84" id="companies-4" xmlns="http://www.w3.org/2000/svg"><g clip-path="url(#a)"><path d="M98.6 64.89c-.3-.1-.5-.3-.8-.39-1.8-.61-2.7-2.21-2.2-4.21.3-1.5 2-2.59 3.7-2.4.2 0 .5.31.6.61q.6 1.335 1.2 2.7c.4.8.9 1 1.5.3.8-.91 1.3-2 1.9-3.11.5-1 .9-2.1 1.4-3.1.4-.7.2-1.4-.1-2.09-1.6-3.91-3.2-7.91-4.8-11.81-1.2-2.8-2-5.89-4.1-8.5h9.4c-.6.7-1.2 1.31-1.7 2-.2.31-.3.7-.2 1 1.5 3.7 2.9 7.31 4.4 11 0 .11.1.11.2.31.7-1.7 1.4-3.31 2-4.91.5-1.2 1-2.5 1.5-3.79.3-.8.3-1.5-.2-2.21-.7-1.09-1.3-2.2-2.1-3.4h6.7c-.7 1.11-1.4 2-2 3-.8 1.4-1.5 2.7-2.1 4.2-1.9 4.7-3.8 9.41-5.7 14.11-1.1 2.59-2.2 5.09-3.5 7.59-.7 1.41-2 2.3-3.5 2.6-.3.11-.5.3-.7.4-.3.1-.6.1-.8.1m-78.5-38h7.2c2.5.11 2.5.11 3.5 2.5 2.1 5 4.29 9.91 6.5 15 .4-.8.7-1.5 1-2.19 1.5-3.9 3.1-7.81 4.6-11.7.3-.7.6-1.3.8-2 .7-1.8.7-1.8 2.6-1.8h6.4c-1.1.8-2.1 1.5-2.9 2.19-.3.31-.6.81-.6 1.2v19.3c0 .41.3.91.6 1.11.9.7 1.9 1.39 3 2.2H40.09c1.11-.81 2.11-1.5 3.01-2.2.3-.2.5-.7.5-1V32.09c0-.09 0-.09-.2-.29C40.7 39 38 46 35.09 53.2c-3.49-7.61-6.39-15.11-9.89-22.4-.1 0-.2 0-.3.09v1c0 4.7.1 9.41-.1 14-.1 2 .7 3.31 2.1 4.5.9.7 1.6 1.61 2.5 2.61h-10c.89-.91 1.6-1.61 2.3-2.41.6-.59 1.2-1 1.7-1.59.3-.41.5-1 .5-1.41V31.3c0-.5-.3-1.1-.7-1.41-1-1.09-2-2-3.1-3M149.5 53h-10.7c.8-.61 1.5-1 2-1.61.3-.29.7-.79.7-1.19V36.1c0-1.21-1.2-1.4-1.7-2.1-.3-.3-.7-.5-1.2-1h8v3.89c.79-1 1.5-2.19 2.5-3.09 2.1-1.8 6.7-1.91 8.5 1.2 1.1 1.8 1.29 3.8 1.29 5.8 0 3 0 6-.09 8.9 0 .8.2 1.4 1 1.9.59.29 1.09.79 1.8 1.29H151c.5-.39.8-.79 1.3-1.09 1-.6 1.4-1.41 1.4-2.5 0-2.41.1-4.8.1-7.2 0-1.4-.2-2.71-.41-4.1-.19-1.2-.79-2.2-2.09-2.61-1.3-.39-2.5.11-3.5 1-.8.81-1.3 1.61-1.2 2.91.1 3.5.1 6.9 0 10.4 0 .8.2 1.4 1 1.8.6.39 1.1.89 1.9 1.5"/><path d="M97.4 53H86.7c.8-.6 1.5-1.1 2.2-1.7.3-.2.6-.6.6-.9 0-3.8 0-7.6-.1-11.4 0-.8-.4-1.6-.8-2.3-.6-1.2-2.5-1.7-3.7-1-1.5.8-2.6 1.9-2.5 3.9.1 3.4.1 6.8 0 10.3 0 .7.2 1.2.8 1.6s1.2.9 2 1.4H74.6c.7-.5 1.2-1 1.9-1.3.6-.4.9-.8.9-1.5V36.3c0-.5-.3-1-.6-1.3-.61-.6-1.4-1.2-2.2-1.9h7.9v4.3c.7-1 1.1-2 1.8-2.8 1.7-1.9 3.9-2.2 6.2-1.6 2.2.5 3.3 2.1 3.8 4.1.3 1.4.4 2.8.5 4.2 0 2.9 0 5.8-.1 8.8 0 .7.2 1.2.9 1.6.5.2 1 .7 1.8 1.3M137 42.79c-.11 2.21-.3 4.21-1.3 6-1.2 2.21-3 3.6-5.31 4.1-3.09.7-6.09.7-8.89-1.1-2.2-1.4-3.4-3.4-3.9-5.79-.4-2-.4-4.11 0-6.11.8-4.1 4-6.89 8.2-7.19 1.8-.11 3.59-.11 5.4.59 3.4 1.21 5.1 3.8 5.69 7.21 0 .79 0 1.59.11 2.29m-5.61.21h-.29c.1-2.41-.1-4.8-.9-7.11-.6-1.69-1.7-2.6-3.3-2.6-1.5 0-2.6.91-3.2 2.6-1 3.31-1.1 6.61-.8 10 .1 1.61.5 3.2 1 4.81.6 1.89 2.4 2.59 4.2 1.89 1.2-.5 1.9-1.5 2.1-2.7.6-2.39.9-4.6 1.19-6.89m-65.89-.5c0-1.91.1-3.61 0-5.3-.2-2.5-1.6-3.91-3.9-3.91-.7 0-1 .21-1.3.8-.4.91-.8 1.7-1.3 2.61-.4.89-.9 1.69-1.4 2.8-.8-1.91-1.5-3.71-2.3-5.71 1.9-.4 3.6-1 5.4-1.2 2.1-.2 4.2-.3 6.2.5 2.29.91 3.2 2.91 3.4 5 .2 3 0 6 0 9v1.8c.1 1.31.6 1.7 2 1.61h.5c-.4 1.59-1.8 2.59-3.61 2.59-2.09 0-3.19-1-3.79-3.59-.6.7-1.21 1.59-1.9 2.29-1.8 1.6-5.1 1.8-7 .41-2-1.5-2.7-4.41-1.8-6.81 1.5-4 6.5-5.1 9.9-3.5.2.31.5.4.9.61m-.1 3.39c.1-.8.1-1.6.1-2.39 0-.21-.2-.61-.4-.71-1.6-.7-3.7-.2-4.7 1.21-.9 1.29-1.2 2.7-.9 4.2.2 1 .7 1.89 1.8 2.3 1.9.7 4.1-.8 4.2-2.8-.1-.61-.1-1.2-.1-1.81m102.9-3.69c0 3 .4 5.69 3 7.3 2.9 1.8 5.7.8 8.5-1-.9 2.2-2.3 3.6-4.3 4.3-3.3 1-6.4.7-9.2-1.5-1.5-1.2-2.5-2.8-2.91-4.7-.59-3.1-.69-6.21.81-9.1 1.3-2.7 3.5-4.2 6.4-4.7 2.4-.41 4.7-.1 6.8 1.2 2.7 1.6 3.6 5.1 3.1 7.8 0 .2-.5.4-.8.4zm0-1h7c.2 0 .4-.31.5-.4.1-1.91.1-3.8-.7-5.6-.5-1.1-1.3-1.81-2.5-1.81-1.2-.09-2.3.41-2.9 1.5-1.2 1.81-1.4 4-1.4 6.31"/></g>
</symbol>

<symbol viewBox="0 0 200 84" id="companies-5" xmlns="http://www.w3.org/2000/svg"><g clip-path="url(#a)"><path d="M25.65 42.11V42c-.03-2.85.52-5.66 1.6-8.29A21.2 21.2 0 0 1 39.04 22.1c2.64-1.04 5.46-1.54 8.31-1.47 12.68 0 21.54 9.65 21.54 21.24v.12c.03 2.83-.52 5.65-1.6 8.28-1.08 2.62-2.68 5-4.7 7a21.3 21.3 0 0 1-7.06 4.61 21.2 21.2 0 0 1-8.3 1.48c-12.7 0-21.58-9.62-21.58-21.25m35.59 0V42c0-8.03-5.85-14.7-14.05-14.7s-13.93 6.55-13.93 14.58V42c0 8.02 5.79 14.63 14.05 14.63 8.25 0 13.97-6.49 13.97-14.52zm16.44-20.77h7.26v34.7h21.73v6.61H77.7zm36.95 0h7.26v41.31h-7.26zm16.47 20.77V42c-.02-2.84.52-5.66 1.6-8.28 1.08-2.63 2.68-5.01 4.7-7s4.42-3.56 7.06-4.61c2.64-1.04 5.46-1.55 8.3-1.48 12.7 0 21.54 9.65 21.54 21.24v.12c.03 2.83-.51 5.65-1.6 8.27a21.1 21.1 0 0 1-4.7 7 21.3 21.3 0 0 1-7.06 4.61 21.2 21.2 0 0 1-8.3 1.48c-12.68.01-21.54-9.61-21.54-21.24m35.59 0V42c0-8.03-5.84-14.7-14.05-14.7-8.2 0-13.93 6.55-13.93 14.58V42c0 8.02 5.85 14.63 14.05 14.63s13.93-6.49 13.93-14.52"/></g>
</symbol>

<symbol viewBox="0 0 200 84" id="companies-6" xmlns="http://www.w3.org/2000/svg"><g clip-path="url(#a)"><path fill-rule="evenodd" d="m21.72 36.34 16.99-8.81 17.19 8.81-17.19 8.83zm102.04 4.27v-.21c0-2.89 1.71-3.86 4.58-3.62v-5.3c-6.89-.41-10.15 3.02-10.15 8.92v.21h-3.12v5.31h3.12v16.04h5.57V45.92h6.41v16.04h5.55V45.92h4.58v-5.31h-4.58v-.21c0-2.89 1.67-3.86 4.58-3.62v-5.3c-6.89-.41-10.16 3.02-10.16 8.92v.21h-6.41zm-38.96 5.8c.91-.71 1.64-1.62 2.13-2.66.5-1.04.74-2.19.72-3.34 0-5-4.08-8.41-9.21-8.41H66.55v29.93H79.4c5.25 0 9.44-3.53 9.44-8.69.01-1.39-.37-2.76-1.08-3.96a7.65 7.65 0 0 0-2.96-2.85zm-6.33-8.87c.44-.01.87.07 1.27.23s.77.4 1.07.71a3.14 3.14 0 0 1 .9 2.36c.01.43-.06.86-.21 1.26-.16.4-.4.77-.7 1.08s-.67.55-1.07.71q-.6.255-1.26.24h-5.96v-6.57zm.9 18.86h-6.86v-7.01h6.86c.93 0 1.83.37 2.49 1.03a3.51 3.51 0 0 1 0 4.97c-.66.66-1.56 1.03-2.49 1.03zm26.85-15.85v11.58c0 3.71-2.03 5.3-4.76 5.3-2.52 0-4.28-1.49-4.28-4.4V40.55H91.6V53.7c0 5.68 3.57 8.83 8.18 8.83 2.9 0 5.16-1.08 6.41-2.99v2.39h5.58V40.55zm57.22 12.93h-16.31c.81 2.81 3.15 4.01 6.06 4.01a5.95 5.95 0 0 0 4.82-2.12l4.52 2.56c-1.06 1.5-2.48 2.7-4.12 3.51-1.65.8-3.48 1.18-5.31 1.09-7.25 0-11.84-4.91-11.84-11.29-.04-1.5.22-3 .78-4.4s1.4-2.67 2.47-3.72c1.07-1.06 2.35-1.89 3.75-2.43 1.41-.55 2.91-.8 4.41-.73 6.39 0 10.94 5 10.94 11.28.01.77-.05 1.53-.17 2.28zm-10.74-8.56c-1.31-.1-2.6.29-3.65 1.08-1.04.8-1.75 1.95-2 3.24h11.02c-.23-1.24-.9-2.36-1.88-3.15a5.25 5.25 0 0 0-3.49-1.13zm19-.69v-3.68h-5.57v21.38h5.57v-10.2c0-4.5 3.66-5.8 6.57-5.43v-6.14c-2.72 0-5.46 1.21-6.57 4.1zM38.71 60.27l-11.58-6.28-5.4 2.89 16.99 9.2 17.18-9.12-5.46-2.9zm-11.58-16.2 11.58 5.7 11.73-5.7 5.46 2.66-17.19 8.36-16.99-8.36z"/></g>
</symbol>

<symbol viewBox="0 0 200 84" id="companies-7" xmlns="http://www.w3.org/2000/svg"><g clip-path="url(#a)"><path d="M57.12 34.35c2.38 2.55 3.67 5.92 3.6 9.41.07 3.49-1.22 6.87-3.6 9.43a12 12 0 0 1-9.05 3.77c-1.66.03-3.29-.34-4.78-1.07-1.48-.74-2.76-1.82-3.75-3.15v3.61h-5.1v-35.5h5.15v13.9a10.5 10.5 0 0 1 3.75-3.16c1.48-.74 3.12-1.12 4.78-1.1 1.69-.05 3.37.28 4.92.94 1.55.67 2.94 1.66 4.08 2.92m-3.94 15.37c1.5-1.63 2.3-3.78 2.25-6 .06-2.21-.75-4.37-2.25-6a7.3 7.3 0 0 0-2.63-1.87c-1-.42-2.08-.62-3.17-.57-1.09-.03-2.19.18-3.2.6a7.7 7.7 0 0 0-2.66 1.89 9.2 9.2 0 0 0-2.2 5.97c0 2.19.78 4.31 2.2 5.98.75.8 1.67 1.44 2.68 1.85 1.02.42 2.12.61 3.21.56 1.08.05 2.16-.14 3.16-.55.99-.42 1.89-1.06 2.61-1.86m36.31-3.99H69.76c.76 3.94 3.52 6.61 8.4 6.61 3.06-.06 6.04-1 8.57-2.72l2.15 3.8c-3.19 2.27-7 3.51-10.92 3.54-9.46 0-13.52-6.6-13.52-13.26-.06-1.72.22-3.45.84-5.07.61-1.61 1.54-3.09 2.73-4.35 1.21-1.24 2.66-2.21 4.26-2.86 1.61-.64 3.33-.95 5.06-.89a12.15 12.15 0 0 1 8.91 3.42c2.28 2.3 3.46 5.39 3.46 9.33-.01.82-.08 1.64-.21 2.45m-19.73-4.22h14.72c-.12-1.8-.93-3.5-2.26-4.72a7 7 0 0 0-4.9-1.83c-3.9 0-6.8 2.62-7.56 6.55m44.72-10.4h4.97v25.26h-4.97v-3.46a10.9 10.9 0 0 1-3.85 3.02c-1.49.7-3.13 1.06-4.78 1.03-1.7.04-3.38-.28-4.94-.95a11.8 11.8 0 0 1-4.1-2.91c-2.39-2.59-3.67-6-3.57-9.52-.07-1.72.22-3.44.83-5.05s1.54-3.08 2.73-4.33c1.16-1.21 2.57-2.17 4.13-2.8 1.55-.64 3.23-.94 4.91-.89 1.66-.03 3.3.33 4.8 1.04 1.5.72 2.81 1.77 3.84 3.08zm-2.06 18.66a8.48 8.48 0 0 0 2.29-6.05c.06-2.22-.76-4.38-2.29-6a8.1 8.1 0 0 0-2.68-1.84c-1-.42-2.09-.64-3.18-.64s-2.17.22-3.18.64a8.1 8.1 0 0 0-2.68 1.84 8.67 8.67 0 0 0-2.24 6.04c-.06 2.23.74 4.4 2.24 6.05.74.8 1.65 1.44 2.66 1.86s2.11.62 3.2.58c1.1.02 2.18-.18 3.19-.61a7.8 7.8 0 0 0 2.66-1.87zm50.59-16.41c.97 1.07 1.72 2.32 2.2 3.68s.69 2.8.61 4.24v15.09h-5.15V42.13c0-4.45-2.24-6.89-5.79-6.89-3.76 0-6.34 2.77-6.34 7.03v14.1h-5.1V42.22c0-4.36-2.25-6.98-5.79-6.98-3.75 0-6.37 2.81-6.37 7.12v14.01h-5.22V31.11h5.06v3.64a8.75 8.75 0 0 1 3.22-3.23 8.57 8.57 0 0 1 4.42-1.13c1.6-.04 3.19.37 4.57 1.19 1.37.83 2.49 2.02 3.21 3.45 1.01-1.47 2.38-2.67 3.98-3.49 1.59-.81 3.37-1.2 5.16-1.15 1.36-.06 2.72.17 3.99.68 1.27.52 2.41 1.3 3.34 2.29"/><path fill-rule="evenodd" d="M34.03 59.17h131.92v3.96H34.03z"/></g>
</symbol>

<symbol viewBox="0 0 200 84" id="companies-8" xmlns="http://www.w3.org/2000/svg"><g clip-path="url(#a)"><path d="M47.31 58.47c-1.2.15-2.31.72-3.13 1.6-.83.88-1.32 2.02-1.4 3.23-.07 1.2.27 2.4.98 3.38a5.2 5.2 0 0 0 2.9 1.98c.32.08.65.12.97.21h.64q.12-.06.24-.09a5.25 5.25 0 0 0 3.35-1.99 5.2 5.2 0 0 0 1.02-3.75 5.16 5.16 0 0 0-1.86-3.41 5.2 5.2 0 0 0-3.71-1.16m5.08-34.2.35-.36c.54-.56.95-1.23 1.19-1.97s.3-1.53.18-2.3a5.1 5.1 0 0 0-1.73-3.25 5.23 5.23 0 0 0-3.46-1.27c-.71.02-1.41.17-2.06.46-.65.28-1.24.69-1.73 1.21L23.26 38.62l-.28.28c-.52.54-.91 1.19-1.14 1.9-.24.7-.32 1.46-.24 2.2.14 1.27.74 2.45 1.7 3.3.95.86 2.18 1.33 3.46 1.33h.57c1.3-.17 2.51-.78 3.42-1.72 7.17-7.22 14.38-14.47 21.64-21.64m0 8.78c-.76-.01-1.51.14-2.2.43-.7.29-1.32.73-1.84 1.27-3.86 3.87-7.61 7.66-11.43 11.45-1.09 1.12-2.26 2.21-3.31 3.34-.57.57-.99 1.27-1.23 2.04-.23.78-.28 1.59-.14 2.39.15.94.56 1.81 1.17 2.54.62.72 1.42 1.26 2.32 1.56s1.87.35 2.8.13c.92-.21 1.77-.67 2.45-1.34 4.99-4.91 9.96-9.87 14.9-14.86.49-.47.87-1.04 1.13-1.68.26-.63.38-1.3.37-1.98 0-.32 0-.65-.09-.97-.2-1.17-.8-2.23-1.69-3.02a5.32 5.32 0 0 0-3.21-1.3m125.94 24.88c-.11-.75-.48-1.44-1.04-1.93a9.4 9.4 0 0 0-1.69-1.13c-.82-.41-1.66-.69-2.47-1.1-.34-.16-.66-.36-.96-.59a.96.96 0 0 1-.37-.63c-.04-.25.02-.5.17-.71.08-.07.16-.2.28-.24.2-.15.43-.25.68-.32.71-.15 1.45-.09 2.13.16.65.24 1.22.57 1.86.85.33-.65.65-1.37 1.05-2.02.04-.05.07-.12.08-.18a.34.34 0 0 0 0-.2.3.3 0 0 0-.09-.18.5.5 0 0 0-.15-.13 7.5 7.5 0 0 0-4.59-1.24c-1.21 0-2.39.36-3.39 1.04-.45.32-.83.74-1.09 1.23-.27.49-.41 1.03-.43 1.58-.02.56.09 1.11.31 1.62.23.5.58.95 1.01 1.3.38.32.8.59 1.25.8.81.4 1.65.72 2.46 1.09.4.16.78.38 1.13.65.19.09.35.24.46.43.1.19.14.4.12.62-.03.21-.12.41-.27.57s-.34.27-.56.31c-.15.06-.31.12-.48.15-.75.13-1.52.05-2.22-.24-.76-.27-1.47-.68-2.09-1.21l-1.53 2.38.12.12a7.7 7.7 0 0 0 3.75 1.81c1.4.24 2.83.09 4.14-.44.57-.2 1.07-.53 1.49-.97.41-.43.71-.95.89-1.53.07-.21.13-.42.16-.64v-.97c-.12-.02-.12-.06-.12-.11M81.18 43.24a.3.3 0 0 0-.17.01c-.06.01-.11.03-.15.07-.05.03-.09.08-.11.13-.03.05-.05.1-.06.16-.96 2.82-1.93 5.64-2.89 8.46-.72 1.89-1.33 3.82-1.82 5.79-.03.19-.08.38-.15.56a.76.76 0 0 1-.17-.32c-.2-.72-.31-1.45-.56-2.18-1.37-4.14-2.78-8.3-4.19-12.4 0-.05-.02-.09-.04-.13a.3.3 0 0 0-.1-.1.3.3 0 0 0-.12-.06.3.3 0 0 0-.14 0h-3.06c-.1-.01-.19.01-.28.05.04.09.06.18.07.28 2.25 6.16 4.51 12.32 6.76 18.49.03.08.07.15.14.2.06.05.14.08.22.08h2.82c.11.02.22-.01.31-.07a.4.4 0 0 0 .17-.26c2.06-5.72 4.15-11.39 6.25-17.12.2-.52.36-1.04.56-1.6-1.11.01-2.2.01-3.29-.04m26.06-3.42c.6-.31 1.18-.66 1.73-1.05l-1.33-2.45h-.07l-.25.16a6.25 6.25 0 0 1-4.11 1.25c-.76-.05-1.49-.31-2.11-.76a4.06 4.06 0 0 1-1.36-1.78q-.15-.54-.24-1.08h9.59v-2.22c-.24-2.7-1.93-5.32-5.44-5.57-1.24-.14-2.5.07-3.63.6a6.64 6.64 0 0 0-2.77 2.43 7.4 7.4 0 0 0-1.12 4.02 6.94 6.94 0 0 0 1.29 4.34 6.9 6.9 0 0 0 3.71 2.6c2.02.62 4.21.45 6.11-.49m-5.2-10.71c.51-.11 1.02-.13 1.54-.08.64.12 1.2.48 1.59 1.01.39.52.57 1.17.5 1.82h-5.93c.05-.65.29-1.26.7-1.75.42-.5.98-.85 1.6-1M91.69 48.32a6.67 6.67 0 0 0-5.92 3.02 7.32 7.32 0 0 0-1.09 4.83c.07 1.14.43 2.25 1.04 3.21.61.97 1.46 1.76 2.47 2.31 1.47.73 3.11 1.02 4.75.85 1.63-.17 3.18-.8 4.47-1.81.05 0 .05-.08.08-.12-.44-.81-.85-1.57-1.29-2.42l-.28.2c-.94.7-2.06 1.13-3.22 1.24-.97.15-1.95-.06-2.77-.6a3.93 3.93 0 0 1-1.66-2.29l-.12-.73h9.46c.13-.86.13-1.74 0-2.61a5.787 5.787 0 0 0-5.92-5.08m2.51 5.47h-5.93a3.17 3.17 0 0 1 2.61-2.8c.56-.09 1.14-.03 1.66.18.52.2.96.56 1.26 1.04.3.47.44 1.03.4 1.58m65.97-5.47a6.65 6.65 0 0 0-3.08.59 6.65 6.65 0 0 0-2.48 1.91c-.98 1.3-1.5 2.88-1.51 4.51-.07 1.5.35 2.98 1.19 4.22a6.92 6.92 0 0 0 3.48 2.66c2.01.68 4.19.58 6.12-.28.75-.3 1.44-.72 2.06-1.24-.44-.81-.89-1.61-1.29-2.43-1 .83-2.22 1.34-3.51 1.46a4.13 4.13 0 0 1-3.58-1.25c-.6-.65-.94-1.5-.97-2.38h9.5v-2.21c-.02-.76-.19-1.5-.5-2.19s-.75-1.31-1.3-1.83-1.2-.92-1.91-1.19c-.71-.26-1.47-.38-2.22-.35m2.5 5.47h-5.97c.07-.46.24-.91.49-1.31.24-.4.57-.75.96-1.02.38-.25.82-.42 1.27-.49.45-.06.91-.04 1.35.09.59.16 1.1.52 1.45 1.02s.5 1.11.45 1.71M83.12 40.31c.58.2 1.19.32 1.8.35 1 .09 2.01-.11 2.9-.58s1.62-1.19 2.1-2.07q.075-.105.12-.21v2.54h3.2V26.69h-3.36v6.05c.04 1.01-.2 2.01-.69 2.89-.31.61-.8 1.11-1.41 1.44-.6.33-1.28.48-1.97.42-.4.01-.8-.12-1.12-.37a1.75 1.75 0 0 1-.61-1c-.12-.49-.17-.99-.16-1.49v-8.02h-3.38v8.86c.01.53.06 1.05.14 1.57a3.79 3.79 0 0 0 2.44 3.27m53.2 8.77v5.68c.01.77-.13 1.54-.4 2.26-.23.71-.68 1.34-1.28 1.79s-1.32.71-2.07.75a1.82 1.82 0 0 1-1.47-.36 1.87 1.87 0 0 1-.7-1.33c-.06-.4-.09-.81-.08-1.21v-7.97h-3.39v8.85c.01.58.08 1.17.21 1.74.1.68.38 1.32.81 1.85s1 .93 1.65 1.17c.73.26 1.51.37 2.29.32.9-.01 1.78-.26 2.56-.72s1.42-1.11 1.87-1.9c0 0 .09-.12.16-.2v2.45h3.23V48.6h-3.39zm-25.49-.39c-.78-.29-1.6-.42-2.42-.37-.93 0-1.83.24-2.63.7s-1.46 1.12-1.92 1.92c-.04.07-.1.14-.17.2v-2.5h-3.21v13.61h3.38V56q0-.72.12-1.41c.15-.9.62-1.72 1.31-2.31s1.57-.91 2.48-.92c.25-.04.52-.02.76.05.25.07.49.19.69.35s.36.37.48.6.19.48.2.74c.07.44.09.89.08 1.33v7.81h3.34v-8.69c.01-.59-.05-1.18-.15-1.76-.05-.69-.3-1.35-.71-1.9a3.54 3.54 0 0 0-1.63-1.2M70.62 32.65h5.8c.57 0 .48.09.48-.48v-2.5h-6.28v-5.44h7.5v-2.9H67.17v18.98h3.42zm52.69 26.78c-.29.01-.59-.03-.86-.14a2.1 2.1 0 0 1-.74-.46c-.22-.2-.39-.45-.51-.72s-.18-.56-.19-.85c-.07-1.85 0-3.67 0-5.51 0-.21.12-.21.25-.21h2.89v-2.7h-3.1v-3.86h-2.98c-.28 0-.32.09-.32.37v3.22c.02.13.02.26 0 .4h-1.81v2.7h1.77v1.77c0 1.61 0 3.26.08 4.87.03.85.31 1.66.82 2.34.5.67 1.2 1.18 2 1.45.78.32 1.61.49 2.45.48h1.37v-3.1c-.47-.05-.8 0-1.12-.05m-6.28-21.98h-.62c-.29.02-.57-.07-.8-.25-.22-.18-.37-.43-.42-.72-.04-.36-.07-.72-.07-1.08V21.33h-3.38v14.62c0 .51.03 1.03.11 1.54.06.57.27 1.12.61 1.58.34.47.8.84 1.32 1.07 1.04.39 2.17.5 3.27.33zm34.47 11.03c-.45 0-.91.04-1.37.12-.74.2-1.41.57-1.97 1.09-.57.52-.99 1.17-1.24 1.89l-.17.41v-3.3h-3.22V62.3h3.39v-5.24q-.015-.9.15-1.77c.09-.81.43-1.57.97-2.18a3.88 3.88 0 0 1 2.06-1.21c.54-.08 1.09-.11 1.65-.11v-3.1c0-.09-.17-.21-.25-.21"/></g>
</symbol>

<symbol viewBox="0 0 200 84" id="companies-9" xmlns="http://www.w3.org/2000/svg"><g clip-path="url(#a)"><path fill-rule="evenodd" d="M176.6 7.6c-1.7.2-3.4.5-5.1.5-1 0-2 0-3.1-.1-.9 0-1.7-.11-2.6-.11s-1.8 0-2.7.11c-1.4 0-2.8.1-4.21 0h-4c-2-.2-3.89-.11-5.89.1-1.4.09-2.8.2-4.2.2-2.5 0-5-.2-7.5-.2-2 0-4 0-5.91.09h-2.79L120.3 8c-.2 0-.5 0-.7-.11-.3 0-.5-.09-.8-.09-1.4.2-2.8.3-4.2.39-1.4 0-3.1-.39-4.6-.39-.8 0-1.7.09-2.5.2-.9.1-1.7.19-2.6.19-2.2 0-4.3-.19-6.5-.19-1.2 0-2.3.1-3.5.19h-1.8c-1.6-.09-3.1-.3-4.7-.3-1.1 0-2.2.3-3.3.41-.6 0-1.1-.11-1.5-.2-.4-.1-.7-.21-1.1-.21-2.4 0-4.9.3-7.31.3-2.5 0-4.89 0-7.29-.19-2.9-.11-5.8-.2-8.8-.31-.3 0-.6.11-.9.2-.5 0-.8.11-1.2.11-1.1 0-2.3-.2-3.4-.2h-10s-3.7.2-5.51.2c-2.5 0-5.09-.11-7.59-.2-.4 0-.8.09-1.2.09h-9.9S18.29 7 18.2 6.5c-.2-.2-.2-.5-.1-.81.1-.3.3-.5.5-.59.1-.1.3-.1.5-.1 1.7 0 3.4.19 5.1.3.3.09.5.09.8 0 1.2-.41 2.4-.2 3.6-.11 1 .11 1.9.2 2.9 0C32.59 5.1 33.8 5 35 5c.59 0 1.2.19 1.8.19h9.9l9.4-.09h3.3c1.6 0 3.2.2 4.7.2s3.6-.3 5.3-.3c1.3 0 2.7.19 4.1.3 1.4 0 2.6.09 3.8.09h10.9c.9 0 1.8-.29 2.7-.39.4 0 .9 0 1.4.1.5.09 1 .09 1.5.09 3.6-.19 7.2-.09 10.9.11 1.9.2 3.7.09 5.6-.11 1.8-.19 3.6-.3 5.4-.09 1.4 0 2.9.09 4.3.2.6 0 1.2-.11 1.8-.2h5.4c.9 0 1.8.09 2.69.09h15.91c2.7 0 5.3.11 8 .2h8.4c2.1 0 4.2-.2 6.3-.2 1 0 2 .2 3 .2h9.2c.7-.09 1.4.41 1.5 1.11 0 .1.1.19.1.19 0 .91-.7 1.2-1.5 1.2h-3.9zM31.1 9.3c-3.4 0-6.9-.2-10.3-.2V9h-1.7c-.31 0-.6.19-.81.5-.19.3-.29.6-.19 1v.1c0 .29.19.6.4.79.2.21.6.31.9.31H30l11.5-.1h7.2c.6.1 1.2.2 1.8.2 2.1-.5 4.3-.5 6.3 0 .3.09.7.09 1 0 .6-.6 1.3-.5 1.9-.41.2 0 .5.11.7.11.3 0 .6.1 1 .2.3.1.6.19.9.19 2-.09 4-.29 6-.29.4 0 .8 0 1.2.1s.8.1 1.3.1c1 0 1.89-.2 2.89-.2h6.41c1.9 0 3.9.1 5.7.2 1.4.2 2.9.3 4.3.3q3-.6 6 0c.4.1.9.1 1.3 0l5.1-.3c.4 0 .7.09 1.1.09h3c3.1.11 6.3.21 9.4.21 1.9 0 3.8-.3 5.7-.3.4 0 .9 0 1.3.09.4.11.8.11 1.1.11h11.4c1.3 0 2.5.2 3.7.2 1.8 0 3.69-.1 5.5-.1h2.5c.6 0 1.19-.3 1.8-.3h9.39l5.11-.2c.6.2 1.2.29 1.8.29 1.4-.09 2.8-.29 4.1-.39.4 0 .9.1 1.3.2.5.19 1 .19 1.5.19 1.5-.5 3.1-.5 4.6 0 .3 0 .7 0 1-.19.3-.1.6-.1.8-.1.5.1 1.2.2 1.8.29h.4c.3 0 .6-.19.8-.39.2-.3.3-.61.2-.9.1-1.1-.6-1.1-1.3-1.1h-10.7c-.4 0-.7-.11-1.1-.2-.4-.11-.8-.11-1.2-.2-1.7.09-3.3.4-5 .4-.5 0-1.11-.11-1.61-.2-.5-.11-1-.2-1.5-.2-3.39.09-6.79.29-10.29.4-.5 0-1-.11-1.5-.2-.1-.2-.6-.3-1-.3-7.1 0-14.3.19-21.4.19-1.2.11-2.3 0-3.5 0H120c-.4-.09-.9-.19-1.3-.19-.6 0-1.1.3-1.6.3H109l-15.6.2h-5.8c-1.3 0-2.7-.2-4-.2-3.7-.2-7.3-.3-11-.3-1.91 0-3.91.3-5.91.3-.69 0-1.39 0-2.09-.11-.6-.09-1.2-.09-1.8-.09-.3 0-.6 0-.9.09-.3 0-.6.11-.8.11-1.4-.11-2.8-.2-4.1-.3h-.5c-2.5.1-5 0-7.4.1-1.6.09-3.2 0-4.8 0h-2.4c-3.6 0-7.4.2-10.8.2m6.4 51.3c2.59-2.71 4-6.4 3.8-10.3l-.1-2c0-1.5 0-1.7-1.61-2-1.59-.1-3.29-.1-4.89.2h-.2c-.3 0-.5.2-.7.39-.21.21-.21.5-.21.81v4.4c.11 1.29-.5 2.5-1.59 3-1.5.7-3.3.1-4.2-1.3-.7-.7-1-1.7-.9-2.7.1-.6 0-1.1-.2-1.71-.2-.59-.3-1.19-.1-1.79.3-1.8.4-3.71.1-5.6v-6.11c.2-1.59.2-3.19 0-4.79-.3-1.3.3-2.6 1.5-3.1.1-.11.2-.11.3-.2.9-.5 1.7-.91 2.6 0 .3.09.5.09.8.2 1 .3 1.69 1.2 1.69 2.3.11.9 0 1.8-.09 2.7-.1.5-.1 1.1-.1 1.6v.5c.19.79 1 1.4 1.8 1.2 1.1 0 2.2.2 3.3.4q3.45.75 2.7-2.7c-.3-1.4-.4-2.9-.2-4.4.4-2.5-.7-5-2.91-6.3-.5-.3-.89-.8-1.29-1.1-2.6-2.1-6.1-2.91-9.4-2-1.4.5-2.7 1.1-3.9 1.9-1.1.4-2 1-2.8 1.9-1.8 2.2-2.8 5.1-2.7 8 .2 2.1.1 4.3 0 6.39-.1 1.71-.1 3.5 0 5.21.1 1.5.1 3.1.1 4.6 0 2.3 0 4.5.19 6.8.11 1.2.61 2.3 1.41 3.2.3.3.59.6.9.9 1.7 3.29 5.3 2.9 8 4.1 2.6-.1 5.2-.7 7.7-1.7.6-.4.9-.61 1.2-.9m69.9-11.21c1-.69 2.1-.5 3.2-.39.3 0 .7.1 1 .1.7 0 .7.6.6 1.29-.2 1.5.1 2.91 1 4.11 1 1.39 2.8 2 4.5 1.3 2.4-.5 2.7-3.6 1.9-5.5-.9-2.1-2.5-3.8-4.4-4.8-2.2-1.3-4.2-2.9-6.1-4.61-1.9-1.89-3.2-4.29-3.7-6.89-.7-3-.1-6.3 1.6-8.9s4.5-4.3 7.6-4.6c1.7-.21 3.4 0 5 .3 4.1.9 6.2 3.7 7.2 7.59.5 1.31.7 2.71.5 4.11 0 1-.8 1.89-1.8 1.89h-.2c-1.5-.59-3-.19-4.5-.69-.1 0-.1 0-.2-.1-.4-.1-.8-.21-.7-.8.2-3.3-.6-6.2-4.5-5.41-1.8.41-2.9 2.21-2.6 4 .1.61.4 1.11.7 1.5 1.2 1.5 2.7 2.91 4.3 4 1.5 1.31 3.1 2.31 4.6 3.5 2 1.71 3.6 3.91 4.6 6.41.8 1.8 1 3.9.4 5.8q-.3.75-.3 1.5c-.1 1.9-1 3.7-2.5 4.9-.3.2-.5.5-.8.7-1.6 1.8-3.9 2.8-6.3 2.69-2.6.21-5.3-.19-7.8-.89-.3 0-.5-.11-.7-.3-.8-1.31-2.1-2.31-2.8-3.6-1-1.5-1.5-3.3-1.3-5.1.1-.61.1-1.2 0-1.9 0-1.6.2-1.9 1.7-1.9.3.5.6.6.8.69m-36.21-18.5C71.1 29.5 71 28 71 26.6s.1-2.8.1-4.3c-.1-1.1-.3-1.2-1.3-1.1-1.8.19-3.5.19-5.3 0-1.7-.1-2.1.19-2.2 1.9-.2 1.6 0 3.2.1 4.9.2 2.2.3 4.5-.2 6.7 0 .4.1.8.3 1.19.2.5.3.91.5 1.41v.3c0 .2-.1.29-.2.4-.1.1-.3.2-.4.2-1.8-.31-3.7-.31-5.5.1-.8.2-1.6-.3-1.8-1.1 0-1.5-.1-2.9-.3-4.4.2-1.8.4-3.6.4-5.41-.1-1 0-2 0-3 0-.69.1-1.29.1-2v-.09c.1-.5-.3-1.1-.8-1.2-.8-.21-1.6-.1-2.5-.1-1 .1-2 .2-3.1-.3q-.75 0-1.5.3h-.7c-.2.1-.4.3-.5.5s-.1.5 0 .7c.1 1.4.1 2.8 0 4.19C46 27 46 27.5 46 28c.3.6.2 1.3.2 1.89 0 .61 0 1.21.2 1.61.4.8.2 1.39-.1 2-.1.39-.3.7-.3 1.1v1.29c-.1 1.81-.1 3.5 0 5.31 0 2 0 4-.1 6 0 1 .1 2 .2 3 .1 1.3.2 2.5.1 3.8q-.15 3.15 0 6.3c0 1.59 1.8 1.8 1.8 1.8h5c.8 0 1.4-.6 1.5-1.4q.45-4.5 0-9c-.3-1.2-.2-2.4.2-3.5.3-.5.3-1.1 0-1.6-.4-.71 0-1 .7-1 2.2.2 4.3.1 6.5-.21.3-.09.6 0 .8.21.2.2.2.5.1.79-.2 1-.3 2.11-.3 3.11.2 1.1.3 2.2.3 3.2-.3 1.5-.2 2.9-.2 4.4 0 1.1 0 2.2-.1 3.2-.1 1.59.3 2 1.69 2 1.81 0 3.71 0 5.5-.1 1.21-.1 1.71-1.1 1.21-2.5-.1-.31-.1-.7-.1-1 .1-4 .1-8.1.1-12.1.3-1.1.5-2.3.6-3.5-.3-2.4-.4-4.71-.2-7.1.1-1.7 0-3.4-.11-5.11m77.11 6.61h-6.41c-.69 0-1-.2-.89-1 .39-2.5.3-5.11-.3-7.61v-.39c0-.2.1-.3.19-.4.11-.1.31-.1.41-.1.4 0 .8.1 1.2.2 1.3.4 2.8.5 4.1.1.79-.1 1.5-.1 2.29 0 .81 0 1.91.09 2.71.2.79 0 1.29-.4 1.1-1.11-.2-1.5-.2-2.89 0-4.39 0-1.7 0-1.7-1.81-1.7-1.29-.1-2.69 0-4 .09-1.89.11-3.69.21-5.59-.09-1.1-.2-2.3-.1-3.41-.1-1 .1-2.09.1-3 0-2-.31-2.59.6-2.29 2.69.29 1.5.29 3 .29 4.61-.09 1.5-.09 2.89 0 4.39.21 2.81.21 5.71.21 8.61v2.2c0 1.1-.1 2.19-.1 3.3-.11 1-.11 2.1-.11 3.1 0 1.7.21 3.1.21 5 .1 1.9.1 3.79 0 5.7-.1.7 0 1.3.9 1.3 1.7.1 3.39 0 5-.1 2-.3 4-.3 6-.11h2c1.39 0 2.8 0 4.3.21 1.4.2 1.8-.5 1.8-2.1-.3-1.3-.4-2.7-.3-4 .09-1-.3-1.2-1.2-1.2h-2.9c-1.9 0-3.81-.1-5.7 0-1.8.09-2 0-1.8-1.91 0-.29.1-.59.1-.79.4-1.4.4-2.8 0-4.21-.1-.5-.1-1-.1-1.39 0-.5.1-1-.1-1.5v-.2c0-.2.1-.3.29-.5.11-.1.31-.2.5-.1.91.1 1.81.1 2.71 0 1.29.1 2.6.1 3.9-.1h.1c.2 0 .29-.1.4-.21.1-.09.2-.29.2-.5-.1-.69.1-1.39.19-2.09.21-.8.31-1.6.21-2.5v-.2c0-.3-.1-.6-.3-.71-.5-.29-.8-.39-1-.39m24.1-15.9h-6.1c-2.2-.1-4.5-.1-6.8-.21-.8 0-1.3.31-1.11 1.11.21 1.5.21 2.89 0 4.39 0 5.11 0 10.21-.09 15.21.2 2.5.09 5-.1 7.4 0 1.2.1 2.39.4 3.5.1 1.1 0 2.3 0 3.39-.1 1.31-.21 2.71 0 4.11.2 1.2.2 1.3 1.5 1.3 1.79-.2 3.6-.3 5.4-.3.8.1 1-.5 1.1-1.2.1-1.8 0-3.6-.2-5.41V46.8q-.15-.75 0-1.5c.5-.8 3.3-.41 4-.2h.2c.8.1 1.4.5 1.9 1.1s.7 1.4.6 2.1c.1 1.5 0 3-.1 4.4-.3 2.3-.1 4.6.6 6.8.2 1 .9 1.8 1.9 2.1 1.3.29 2.7.4 4.1.5 3 .29 2.9-.71 2.2-2.8-.1-.41-.3-.8-.5-1.2-.3-.6-.5-1.21-.5-1.9-.2-2.5-.3-5.1-.2-7.6.6-2.6-.7-5.4-3.2-6.5-.6-.3-.7-.6 0-1 2-1 3.2-3.1 2.8-5.4-.1-.7-.1-1.4.1-2.1.5-1.6.2-3.1 0-4.6-.1-.61-.2-1.3-.3-1.9-.1-.8-.3-1.5-.7-2.21-1.5-2-4.1-3.39-6.9-3.29M89.1 54c-1 .1-2 .2-3 .2-.7-.1-1.3.4-1.4 1.1v.09c-.3 1.5-.4 2.91-.5 4.41 0 2-.2 2.2-2.2 2.09-1.7.21-3.3.21-5 0-.5-.09-.8-.5-.7-1 0-.89.1-1.79.3-2.69.7-1.9 1.09-4 1.09-6 0-.5.11-1 .31-1.4.7-1.7 1.2-3.5 1.3-5.41 0-1.59.3-3.19 1.1-4.59.3-.7.4-1.5.4-2.3.8-4.2 1.7-8.3 2.6-12.5.5-1.2.7-2.61.6-3.9-.3-.71.5-.71 1-.71h4.3c.8.11 1.5.11 2.3 0 1.7-.29 2.1 0 2.3 1.71.5 1.9.8 3.79.8 5.79.1.81.3 1.61.7 2.41.6 1.9.4 4 .9 5.9.6 1.9 1.1 3.9 1.4 6 .2 2 .6 4 1.3 6 .1.4.1.9 0 1.3 0 1 .2 2 .6 2.8.5 1 .8 2.09.7 3.2-.2 1.3 0 2.7.7 3.8.6 1.09.3 1.3-.9 1.59-1.4.21-2.9.11-4.3-.19-.3-.1-.7 0-1.1 0-.6.1-1.1.19-1.6-.2-.3-.8-.5-1.61-.4-2.4q-.75-2.25-.6-4.5c0-.5-.2-.6-.6-.6zm83.8-18c0-.8 0-1.61-.1-2.4-.1-.9-.1-1.8-.1-2.6.2-.9-.1-1.8-.8-2.4s-1.6-.8-2.4-.5c-.5.1-.9.2-1.4.2-1.3.09-1.6.4-1.5 1.59-.1 1.71 0 3.31.2 5 .2.71-.1 1.41-.3 2-.3.91-.6 1.71.1 2.31 1.1.4 2.3.4 3.5 0 1.6-.1 2.9-1.5 2.8-3.2M87.6 47.2c-1.3-.1-1.4-.31-1.3-1.7 0-.3 0-.7.1-1 .8-2.4 1.3-4.9 1.3-7.4v-.8c0-.2.2-.41.4-.41.3 0 .6.11.6.41.1.2.1.4.1.59-.4 1.21-.1 2.31.2 3.41.1.5.3 1 .4 1.5.3 1.7.7 3.4 1.1 5.09.1.61.1.81-.6.61s-1.5-.3-2.3-.3m20 2.4c-.1.1-.1.1-.1-.1zm68.5 24.9c.8.19 1.6.3 2.4.1l-.1-.1h1.3c1.5 0 2.2-.4 2.2-1.31 0-.89-.6-1.3-2.1-1.5-1-.09-2 0-3.1.11-1 .09-2.1.2-3.1.09q-3-.3-6 0c-1.4.11-2.8 0-4.1 0-1.5 0-3-.09-4.61 0-1.59.11-3.29.11-4.89 0h-5.2c-1.91 0-3.7.11-5.5 0-2.41-.2-4.8-.2-7.1 0-1.4.21-2.81.21-4.1 0-1.6-.2-3.21-.2-4.8 0-1.3.21-2.6.21-3.9.11-2.8-.11-5.7-.11-8.5-.11q-4.8.45-9.6 0c-1.6-.39-3.3-.29-4.9.3-.3.11-.7.11-1 0-2.2-.39-4.4-.5-6.6-.3-.5 0-1.1.11-1.6.11-.6.1-1.2.19-1.9.1-1.8-.3-3.7-.41-5.5-.3-3.9.39-7.9.5-11.8.3L51.5 72c-3.6 0-7.2-.2-10.91-.2-2.19-.11-4.5-.11-6.69 0-1.81.2-3.7.2-5.5 0-1.2-.2-2.5-.2-3.7-.11q-.6.165-1.2 0c-1.3-.39-2.6-.5-3.9-.09h-.5c-.9.2-1.5 1-1.31 1.9.21 1.1 1 1 1.71 1h.2c1.9.1 3.8.1 5.6 0 4.1.1 8.4.1 12.4.1 1.6 0 3.2-.1 4.7-.1 2.4-.11 4.8-.2 7.2-.11 4.7.11 9.3.11 14 .11 1.5.1 3.09.1 4.59 0 1.61-.31 3.31-.2 4.91.39.5.21 1 .21 1.4 0 2.2-.59 4.5-.7 6.8-.2 1.4.11 2.8.11 4.1.11.8 0 1.6-.11 2.4-.11 1-.09 2.1-.19 3.1-.09 2.8.29 5.7.29 8.5 0q.9-.15 1.8 0c1.2.4 2.4.5 3.7.29 3.3-.59 6.6-.7 9.9-.39 2.9.3 5.8.3 8.7-.11 1.4-.29 2.9-.29 4.4 0 .99.21 1.9.21 2.9 0 2-.2 4-.29 6.09-.2 5.61.11 11.31.11 16.91.2 2.8-.2 5.7-.2 8.5 0 .8-.09 1.7-.09 2.5-.09 1.2.3 2.3.2 3.5.09 1-.09 1.9-.2 2.9-.09.9.09 1.9.09 2.9 0 .6-.11 1.3 0 2 .2M21 75.69h.1c2.5.41 5 .41 7.4-.09.9-.21 1.8-.1 2.7.2.89.2 1.8.2 2.7-.11 2.1-.19 4.3-.19 6.5.2 1 .21 1.9.21 2.9 0 2-.29 4-.39 6.1-.2h2.2c2 0 4.1 0 6.2.11 1.4.09 2.9.09 4.3 0 2.09-.11 4.1-.2 6.2.3 3.3-.3 6.7-.21 10-.1 1.7.1 3.3.1 5 .1 1.6.09 3.2.09 4.7-.3.3-.11.7-.11 1 0 2 .2 4.2.2 6.5.2h3.7c2.7 0 5.2 0 7.8-.11h2c1.4 0 2.7-.09 4.1 0q2.4.165 4.8 0c1.3 0 2.5-.09 3.8 0 1.5.11 3.1.11 4.6 0 1.1-.29 2.2-.39 3.3-.39 1 .1 1.9.19 2.9.3.6.3 1.39.3 2.1 0 .4-.2.9-.2 1.29-.2h4.21c3.5 0 7-.1 10.5.09 2.7.2 5.5.2 8.2 0 2.2-.19 4.4-.09 6.6-.09 1.1 0 2.3.09 3.4.09 1.3 0 2.5 0 3.8.11 2.5.09 5 .2 7.6-.11.4-.09.8 0 1.1.2.3.21.6.5.7.91v.39c-.1.91-.9 1.5-1.7 1.41-2.2-.5-4.5-.6-6.8-.3-2.2-.3-4.3-.2-6.4.3-.3.09-.7.09-1 0-2.3-.6-4.71-.6-7-.1-.6 0-1.1-.11-1.71-.2-.5-.11-1-.2-1.59-.2l-5.91.2c-3 .09-5.89.09-8.89 0h-8.2c-2.41 0-4.8-.11-7.2 0-2.6.09-5.2 0-7.8 0s-5.2-.11-7.8 0c-3 .3-6 .2-8.9-.11h-.4c-.9.41-1.9.31-2.8.31-.7 0-1.3-.11-2 0-1.2-.11-2.4-.11-3.5 0-1.6.3-3.3.3-4.9 0-1.9-.2-3.8-.11-5.7.39-.3.11-.6.11-.8 0-2.2-.39-4.4-.39-6.5 0-1.1 0-2.2-.09-3.2-.29-2 0-4.11.09-6.11.29-1.09-.09-2.19-.2-3.19-.5-.4-.09-.8-.2-1.2-.09-1.9.3-3.8.2-5.6.2q-2.25-.165-4.5 0c-2.8.19-5.7.19-8.5.1-1.4 0-2.9-.1-4.3-.1l-16.2-.11h-2.1c-.6-.09-1-.59-.9-1.2-.1-.3 0-.5.09-.69.11-.2.41-.4.61-.4h.2z"/></g>
</symbol>

<symbol viewBox="0 0 70 70" id="footer-icon" xmlns="http://www.w3.org/2000/svg"><path d="M59.25 33.73c0-.07-.07-.1-.14-.1s-.1.03-.14.1l-1.43 4.69v.08c0 .06.07.13.14.13h2.83c.07 0 .14-.07.14-.13v-.08zm-46.94 0c0-.07-.06-.1-.14-.1-.06 0-.1.03-.13.1l-1.44 4.69v.08c0 .06.07.13.14.13h2.84c.07 0 .14-.07.14-.13v-.08z"/><path d="M0 0v70h70V0zm19.45 43.89h-3.7c-.11 0-.18-.08-.21-.14l-.63-1.93c-.04-.07-.11-.14-.21-.14H9.69c-.11 0-.17.07-.21.14l-.7 1.93c-.03.06-.1.14-.21.14H4.86c-.14 0-.24-.11-.24-.25v-.07l5.94-14.7c.04-.07.11-.14.22-.14h2.76c.07 0 .18.04.21.14v.04l5.88 14.69v.11c.07.1-.03.18-.18.18m3.93-7.64v.11c-.07 2.35 1.75 4.34 4.09 4.41 1.44 0 2.77-.8 3.43-2.06.03-.07.11-.11.18-.11h3.71c.14 0 .24.11.24.25v.1c-1.08 3.19-4.13 5.32-7.49 5.29-4.34 0-7.87-3.5-7.91-7.85 0-4.33 3.5-7.87 7.84-7.9a7.8 7.8 0 0 1 7.59 5.35v.11c0 .13-.1.24-.24.21h-3.67a.21.21 0 0 1-.18-.11s0-.03-.04-.03a3.89 3.89 0 0 0-3.46-2.14h-.1c-2.31.07-4.1 2.07-3.99 4.37M44.1 44.2c-4.35 0-7.88-3.5-7.92-7.87 0-4.34 3.5-7.88 7.88-7.92a7.87 7.87 0 0 1 7.6 5.36v.1c0 .15-.11.25-.25.21h-3.74a.2.2 0 0 1-.18-.1l-.03-.03c-.67-1.3-2-2.14-3.47-2.14h-.1c-2.31.1-4.1 2.1-3.99 4.41v.11c-.07 2.34 1.75 4.33 4.09 4.41 1.44 0 2.77-.81 3.43-2.07a.21.21 0 0 1 .18-.11h3.71c.14 0 .24.11.24.25v.1c-1.05 3.19-4.09 5.33-7.45 5.29m22.29-.31h-3.74c-.11 0-.18-.08-.22-.14l-.62-1.93c-.04-.07-.11-.14-.21-.14h-4.97c-.11 0-.18.07-.21.14l-.7 1.93c-.04.06-.11.14-.21.14H51.8c-.14 0-.25-.11-.25-.25v-.07l5.95-14.7c.04-.07.11-.14.21-.14h2.77c.07 0 .17.04.2.14v.04l5.88 14.69v.11c.04.1-.06.18-.17.18"/>
</symbol>

<symbol viewBox="0 0 50 50" id="footer-logo" xmlns="http://www.w3.org/2000/svg"><path d="M25.04 50C11.24 50 .04 38.77.07 24.97c0-10.03 6.01-19.09 15.27-23.01 12.73-5.29 27.36.77 32.64 13.53 5.24 12.63-.64 27.11-13.2 32.52A25 25 0 0 1 25.04 50m-1.88-28.95h-.4c-1.99.02-3.9.62-5.54 1.74a8 8 0 0 0-1.83 11.14c.39.57.87 1.07 1.41 1.52.75.67 1.62 1.21 2.53 1.64 1 .42 2.04.64 3.11.69h.42c1.84 0 3.65-.57 5.16-1.59l.43-.27v-4.3a8.46 8.46 0 0 1-5.22 2.14h-.3a5.23 5.23 0 0 1-3.77-1.91 4.27 4.27 0 0 1-.67-4.1c.35-.87.99-1.61 1.79-2.11.82-.5 1.74-.82 2.7-.92.25-.02.5-.02.77-.02 1.62.07 3.21.39 4.7.99v-3.75c-1.72-.57-3.48-.87-5.29-.89m1.74-6.61h.42c1.44.08 2.78.7 3.75 1.74a5.74 5.74 0 0 1 1.54 3.9v13.88c0 1.69 1.39 3.08 3.07 3.08h4.05v-3.95h-2.8V20.43c.02-5.32-4.2-9.66-9.49-9.81h-.42c-2.76-.1-5.44.87-7.47 2.71-1.62 1.56-2.49 3.75-2.44 5.98h4.32c-.05-1.17.35-2.31 1.12-3.2 1.14-1.14 2.73-1.77 4.35-1.67"/>
</symbol>

<symbol viewBox="0 0 195 42" id="logo" xmlns="http://www.w3.org/2000/svg"><g clip-path="url(#a)"><path d="M52.86 18.8h-3.19l6.14-17.42h3.47l6.1 17.42h-3.34l-1.13-3.31h-6.96zm4.59-13.52-2.49 7.36h4.98zm8.6 7.13c0-1.95.46-3.51 1.4-4.68.5-.62 1.16-1.09 1.86-1.44.78-.39 1.68-.58 2.53-.58 1.87 0 3.35.66 4.44 2.02.62.78.97 1.8 1.01 2.77h-3.08c0-.43-.15-.82-.38-1.21-.43-.66-1.06-.97-1.99-.93-.7-.04-1.4.27-1.87.78-.58.62-.85 1.71-.85 3.27s.27 2.61.85 3.23c.47.55 1.17.82 1.87.82.9 0 1.56-.31 1.99-.97.23-.35.35-.78.38-1.17h3.08a4.73 4.73 0 0 1-1.01 2.76c-1.09 1.37-2.57 2.03-4.44 2.03-.89 0-1.75-.19-2.53-.58-.7-.35-1.36-.82-1.86-1.45-.94-1.2-1.4-2.76-1.4-4.67m12.91 0c0-1.95.47-3.51 1.4-4.68.51-.62 1.17-1.09 1.87-1.44.78-.39 1.67-.58 2.53-.58 1.86 0 3.34.66 4.43 2.02.62.78.97 1.8 1.01 2.77h-3.07c0-.43-.16-.82-.39-1.21-.43-.66-1.05-.97-1.98-.93-.7-.04-1.4.27-1.87.78-.58.62-.86 1.71-.86 3.27s.28 2.61.86 3.23c.47.55 1.17.82 1.87.82.89 0 1.55-.31 1.98-.97.23-.35.35-.78.39-1.17h3.07a4.73 4.73 0 0 1-1.01 2.76c-1.09 1.37-2.57 2.03-4.43 2.03-.9 0-1.75-.19-2.53-.58-.7-.35-1.36-.82-1.87-1.45-.93-1.2-1.4-2.76-1.4-4.67m18.9 6.74c-.89 0-1.75-.2-2.56-.59-.74-.31-1.36-.81-1.87-1.4-.97-1.24-1.48-2.84-1.48-4.75s.51-3.51 1.48-4.75c.51-.63 1.17-1.1 1.87-1.41a5.3 5.3 0 0 1 2.56-.54c.9 0 1.76.19 2.57.58.74.31 1.36.82 1.87 1.4.97 1.25 1.48 2.85 1.48 4.76s-.51 3.47-1.48 4.75c-.51.62-1.17 1.09-1.87 1.4-.78.35-1.67.55-2.57.55m.04-10.79c-.74 0-1.44.27-1.94.82-.62.66-.94 1.75-.94 3.23s.32 2.57.94 3.23c.5.55 1.2.86 1.94.82h.04c.74 0 1.44-.27 1.95-.82.62-.66.93-1.75.93-3.23s-.31-2.57-.93-3.23c-.55-.55-1.25-.86-1.99-.82m8.25 6.19V6.02h3.07v7.79c0 1.6.74 2.42 2.22 2.42.58 0 1.17-.24 1.56-.63.62-.58.93-1.52.93-2.88v-6.7H117V18.8h-2.33l-.35-1.72c-.35.67-.86 1.17-1.52 1.48-.7.36-1.48.55-2.29.55-1.36 0-2.45-.43-3.23-1.25-.74-.81-1.13-1.94-1.13-3.31m13.93 4.25V6.02h2.56l.24 1.67c.35-.62.89-1.16 1.55-1.48.7-.35 1.44-.5 2.22-.5 1.36 0 2.41.43 3.19 1.28.78.86 1.17 1.95 1.17 3.31v8.5h-3.08v-7.83c0-.78-.15-1.41-.46-1.79-.31-.39-.86-.63-1.64-.63-.97 0-1.71.55-2.21 1.64-.28.62-.43 1.79-.43 3.43v5.18zm12.44-10.25V6.02h2.34V2.79l3.07-.78v4.01h3.23v2.53h-3.23v6.27c0 .94.47 1.41 1.44 1.41q.99 0 1.98-.12v2.65c-.85.16-1.75.23-2.64.23-1.29 0-2.22-.35-2.88-1.01s-.97-1.64-.97-2.88V8.55zm14.94 10.6c-1.48 0-2.64-.39-3.46-1.17a3.77 3.77 0 0 1-1.25-2.84c-.03-1.06.39-2.11 1.21-2.81s1.87-1.09 3.11-1.17l3.81-.27v-.78c0-.62-.15-1.13-.46-1.48s-.9-.51-1.71-.51c-1.48 0-2.26.59-2.34 1.76h-3.03c.08-1.37.62-2.42 1.59-3.12.98-.7 2.26-1.05 3.78-1.05 2.52 0 4.2.89 4.86 2.65.23.62.39 1.48.35 2.61v4.67c-.04.24.04.43.15.63.16.11.35.19.55.19l.39-.04v2.3c-.47.23-.98.35-1.48.35h-.04a2.08 2.08 0 0 1-1.56-.54c-.38-.35-.62-.78-.66-1.29-.35.58-.89 1.09-1.51 1.4-.67.31-1.48.51-2.3.51m3.46-6.04-3.3.23c-.47.04-.9.2-1.25.51-.35.27-.54.7-.5 1.17 0 .43.19.86.54 1.13s.82.43 1.28.43c.98 0 1.79-.28 2.38-.78.58-.51.89-1.21.89-2.14zm6.3 5.69V6.02h2.57l.24 1.67c.35-.62.89-1.16 1.55-1.48.7-.35 1.44-.5 2.22-.5 1.36 0 2.41.43 3.19 1.28.78.86 1.17 1.95 1.17 3.31v8.5h-3.08v-7.83c0-.78-.15-1.41-.46-1.79-.32-.39-.86-.63-1.64-.63-.97 0-1.71.55-2.22 1.64-.27.62-.42 1.79-.42 3.43v5.18zm13.11-6.39c0-1.95.47-3.51 1.4-4.68.51-.62 1.17-1.09 1.87-1.44.78-.39 1.67-.58 2.53-.58 1.87 0 3.34.66 4.43 2.02.63.78.98 1.8 1.02 2.77h-3.08c0-.43-.15-.82-.39-1.21-.42-.66-1.05-.97-1.98-.93-.7-.04-1.4.27-1.87.78-.58.62-.85 1.71-.85 3.27s.27 2.61.85 3.23c.47.55 1.17.82 1.87.82.89 0 1.56-.31 1.98-.97.24-.35.35-.78.39-1.17h3.08a4.68 4.68 0 0 1-1.02 2.76c-1.09 1.37-2.56 2.03-4.43 2.03-.9 0-1.75-.19-2.53-.58-.7-.35-1.36-.82-1.87-1.45-.93-1.2-1.4-2.76-1.4-4.67m11.63-6.39h3.38l3.35 9.24 3.19-9.24h3.11l-5.64 14.96c-.82 2.15-2.14 3.2-3.93 3.2-.82 0-1.59-.12-2.37-.31v-2.53c.58.11 1.16.19 1.71.23.74 0 1.21-.31 1.48-.97l.74-1.8zM51.07 35.98c-.31-1.36-.47-2.73-.43-4.13-.04-1.36.12-2.77.43-4.13a6.64 6.64 0 0 1 1.71-2.96c1.32-1.33 2.96-1.95 4.94-1.95s3.66.66 4.94 2.03c.93.97 1.48 2.22 1.63 3.78h-3.18c-.08-.67-.35-1.33-.78-1.83-.59-.71-1.44-1.1-2.65-1.1-1.01-.03-1.98.39-2.68 1.17-.39.43-.7.98-.86 1.56-.15.55-.27 1.09-.31 1.64-.04.43-.04 1.05-.04 1.79s0 1.36.04 1.79c.04.55.16 1.13.31 1.64.16.58.43 1.13.86 1.56.7.74 1.67 1.17 2.68 1.17 1.17 0 2.02-.35 2.65-1.09.46-.55.74-1.21.78-1.91h3.18c-.15 1.55-.7 2.84-1.63 3.81a6.54 6.54 0 0 1-4.94 2.07c-1.98 0-3.62-.66-4.94-1.95-.82-.78-1.4-1.83-1.71-2.96m15.4 1.32V22.81h3.08v13.95c-.04.31.07.66.23.93.16.2.51.32.97.32h.55v2.61c-.43.07-.9.15-1.36.15-1.09 0-1.95-.27-2.57-.82-.59-.58-.9-1.48-.9-2.65m11.95 3.63c-.9 0-1.76-.2-2.57-.59-.74-.31-1.36-.81-1.87-1.4-.97-1.25-1.48-2.84-1.48-4.75s.51-3.47 1.48-4.76c.51-.62 1.17-1.09 1.87-1.4.81-.39 1.67-.58 2.57-.54.89 0 1.75.19 2.56.58.74.31 1.36.82 1.87 1.4.97 1.25 1.48 2.85 1.48 4.76s-.51 3.46-1.48 4.75c-.51.62-1.17 1.09-1.87 1.4-.81.35-1.67.55-2.56.55m0-10.79c-.74 0-1.44.27-1.95.81-.62.67-.93 1.76-.93 3.24s.31 2.57.93 3.23c.51.55 1.21.86 1.95.82.73 0 1.43-.27 1.94-.82.62-.66.93-1.75.93-3.23s-.31-2.57-.93-3.24c-.51-.54-1.21-.85-1.94-.81m8.13 6.19V27.8h3.07v7.79c0 1.64.74 2.42 2.22 2.42.58 0 1.16-.24 1.55-.63.62-.58.93-1.52.93-2.88v-6.7h3.08v12.82h-2.34l-.35-1.72c-.35.66-.85 1.17-1.51 1.48-.7.35-1.48.55-2.3.55-1.36 0-2.45-.43-3.23-1.25-.7-.86-1.12-1.95-1.12-3.35m18.59 4.56c-1.13 0-2.26-.35-3.11-1.09-1.48-1.25-2.26-3.12-2.26-5.57 0-2.54.78-4.44 2.26-5.73.89-.7 1.98-1.05 3.11-1.05 1.56 0 2.68.39 3.34 1.21v-5.85h3.08v17.81h-2.65l-.19-1.37c-.7 1.09-1.91 1.64-3.58 1.64m.62-10.87c-.82 0-1.59.35-2.06 1.01-.54.7-.82 1.76-.82 3.12 0 1.4.28 2.45.82 3.15.47.67 1.24 1.06 2.06 1.02.7.04 1.4-.24 1.91-.7.66-.67 1.01-1.83 1.01-3.47 0-1.36-.23-2.42-.74-3.12-.51-.66-1.24-1.01-2.18-1.01M20.84 41.98C9.29 41.94-.04 32.51 0 20.94.03 9.37 9.45-.02 21.04.02 29.4.06 36.95 5.08 40.22 12.8c4.51 10.67-.51 23.02-11.21 27.5-2.56 1.13-5.36 1.68-8.17 1.68m-1.55-24.31h-.35c-1.79.04-3.39.54-4.67 1.48a6.695 6.695 0 0 0-1.56 9.31c.36.47.74.94 1.21 1.29.62.58 1.36 1.01 2.14 1.36.82.35 1.71.55 2.61.58h.35c1.55 0 3.07-.46 4.35-1.36l.35-.23v-3.63c-1.47 1.17-2.99 1.8-4.39 1.8h-.27a4.25 4.25 0 0 1-3.19-1.6c-.78-.98-.98-2.26-.55-3.43.55-1.36 2.02-2.34 3.77-2.53.2-.04.43-.04.67-.04 1.36 0 2.72.39 3.92.82v-3.08c-1.4-.47-2.87-.7-4.39-.74m1.44-5.53h.35c1.2.04 2.33.58 3.15 1.48.82.89 1.28 2.06 1.28 3.27v11.65c0 1.44 1.17 2.57 2.61 2.57h3.38V27.8h-2.33V17.16c.04-4.48-3.54-8.1-7.98-8.22h-.35c-2.52 0-4.78.82-6.26 2.26-1.32 1.29-2.06 3.04-2.06 5.03h3.62c0-1.09.35-2.11.93-2.69.97-.98 2.1-1.4 3.66-1.4"/></g>
</symbol>

</svg>

